<?xml version="1.0" standalone="no"?>
<!DOCTYPE svg PUBLIC "-//W3C//DTD SVG 20010904//EN"
 "http://www.w3.org/TR/2001/REC-SVG-20010904/DTD/svg10.dtd">
<svg version="1.0" xmlns="http://www.w3.org/2000/svg"
 width="84.000000pt" height="84.000000pt" viewBox="0 0 84.000000 84.000000"
 preserveAspectRatio="xMidYMid meet">
<metadata>
Created by potrace 1.11, written by Peter Selinger 2001-2013
</metadata>
<g transform="translate(0.000000,84.000000) scale(0.100000,-0.100000)"
fill="#000000" stroke="none">
<path d="M466 751 c-9 -10 -30 -21 -46 -25 -41 -8 -47 -42 -26 -133 19 -80 36
-96 36 -34 0 22 5 52 10 67 10 26 11 26 31 8 19 -17 20 -17 26 4 11 42 43 20
43 -29 0 -10 7 -19 15 -19 26 0 16 -29 -25 -74 -50 -54 -51 -64 -2 -36 l37 22
-30 -32 c-30 -33 -30 -33 -5 -26 71 18 100 19 100 3 0 -9 7 -20 16 -25 22 -12
9 -32 -20 -32 -13 0 -30 -10 -38 -22 -15 -23 -16 -23 -52 -5 -21 9 -41 15 -45
12 -5 -2 -15 13 -24 35 -25 65 -71 50 -59 -19 7 -33 61 -84 131 -122 34 -17
61 -38 61 -45 0 -8 8 -14 18 -15 9 -1 32 -2 50 -4 17 -1 32 1 32 7 0 5 8 4 19
-2 27 -14 31 -13 31 10 0 11 -6 20 -12 21 -7 0 -3 5 10 11 26 13 28 26 7 35
-9 3 -22 -2 -30 -13 -13 -18 -14 -18 -8 4 6 26 -12 30 -26 5 -8 -14 -11 -15
-11 -3 0 12 -3 11 -11 -3 -9 -15 -12 -15 -24 -3 -8 7 -25 11 -38 9 -26 -5 -75
16 -96 41 -9 10 1 8 27 -7 36 -19 44 -20 74 -9 19 6 42 12 51 12 10 0 23 12
30 28 6 15 20 33 29 40 18 13 24 52 11 66 -5 4 -12 26 -18 49 -8 36 -14 42
-38 45 -15 2 -43 -6 -62 -16 l-33 -20 24 35 c25 37 31 90 15 121 -6 9 -12 29
-16 45 -4 19 -12 27 -28 27 -12 1 -33 7 -47 15 -33 19 -44 18 -64 -4z"/>
<path d="M200 710 c-8 -15 -21 -20 -50 -20 -50 0 -71 -21 -69 -69 2 -20 -3
-46 -9 -58 -31 -58 4 -104 94 -124 l59 -12 -44 -8 c-56 -11 -69 -22 -82 -76
-6 -24 -15 -46 -20 -49 -17 -10 -10 -72 9 -86 10 -7 25 -26 33 -43 11 -24 21
-30 49 -32 19 -2 52 -5 73 -9 36 -6 41 -3 81 39 44 45 81 128 74 164 -2 14 -9
9 -26 -18 -31 -51 -71 -89 -94 -89 -16 0 -17 3 -8 21 15 26 7 34 -18 20 -29
-16 -62 -14 -62 3 0 8 19 26 42 40 l41 24 -34 4 c-56 5 -42 30 31 55 36 12 67
23 70 24 3 1 -17 5 -45 9 l-50 7 60 2 60 2 -27 24 c-16 13 -52 29 -85 35 -78
16 -98 27 -82 46 6 8 18 14 25 14 20 0 17 14 -6 35 -50 45 0 39 103 -13 4 -2
5 8 1 22 -13 55 50 13 90 -59 l17 -30 -5 35 c-9 56 -58 142 -95 167 -43 29
-87 30 -101 3z"/>
<path d="M383 232 c-18 -43 -33 -85 -33 -94 0 -24 36 -50 67 -47 15 1 36 -2
46 -6 26 -11 47 1 58 35 7 18 18 30 29 30 41 0 32 49 -18 103 -35 36 -43 34
-40 -10 2 -30 0 -38 -14 -38 -10 0 -23 -6 -30 -13 -24 -24 -30 -11 -26 53 1
36 1 65 -2 65 -3 0 -20 -36 -37 -78z"/>
</g>
</svg>
